<?xml version="1.0" encoding="UTF-8" standalone="no"?>
<!-- Created with Inkscape (http://www.inkscape.org/) -->

<svg
   xmlns:dc="http://purl.org/dc/elements/1.1/"
   xmlns:cc="http://creativecommons.org/ns#"
   xmlns:rdf="http://www.w3.org/1999/02/22-rdf-syntax-ns#"
   xmlns:svg="http://www.w3.org/2000/svg"
   xmlns="http://www.w3.org/2000/svg"
   xmlns:sodipodi="http://sodipodi.sourceforge.net/DTD/sodipodi-0.dtd"
   xmlns:inkscape="http://www.inkscape.org/namespaces/inkscape"
   width="200"
   height="200"
   viewBox="0 0 200 200"
   id="svg3336"
   version="1.1"
   inkscape:version="0.91 r13725"
   sodipodi:docname="logo.svg"
   inkscape:export-filename="/Users/leo/Documents/web-site-2/images/logo.png"
   inkscape:export-xdpi="90"
   inkscape:export-ydpi="90">
  <defs
     id="defs3338">
    <inkscape:path-effect
       effect="powerstroke"
       id="path-effect4227"
       is_visible="true"
       offset_points="0,0.98761469 | 1.5461431,9.1730305 | 3,11.939608"
       sort_points="true"
       interpolator_type="Linear"
       interpolator_beta="0.2"
       start_linecap_type="round"
       linejoin_type="round"
       miter_limit="4"
       end_linecap_type="round" />
    <inkscape:path-effect
       effect="powerstroke"
       id="path-effect4182"
       is_visible="true"
       offset_points="0,0.5"
       sort_points="true"
       interpolator_type="Linear"
       interpolator_beta="0.2"
       start_linecap_type="zerowidth"
       linejoin_type="round"
       miter_limit="4"
       end_linecap_type="peak"
       cusp_linecap_type="round" />
    <inkscape:path-effect
       effect="spiro"
       id="path-effect4180"
       is_visible="true" />
    <inkscape:path-effect
       effect="powerstroke"
       id="path-effect4176"
       is_visible="true"
       offset_points="0,0.5"
       sort_points="true"
       interpolator_type="Linear"
       interpolator_beta="0.2"
       start_linecap_type="zerowidth"
       linejoin_type="round"
       miter_limit="4"
       end_linecap_type="zerowidth"
       cusp_linecap_type="round" />
    <inkscape:path-effect
       effect="spiro"
       id="path-effect4174"
       is_visible="true" />
    <inkscape:path-effect
       effect="powerstroke"
       id="path-effect4170"
       is_visible="true"
       offset_points="0,0.5"
       sort_points="true"
       interpolator_type="Linear"
       interpolator_beta="0.2"
       start_linecap_type="zerowidth"
       linejoin_type="round"
       miter_limit="4"
       end_linecap_type="zerowidth"
       cusp_linecap_type="round" />
    <inkscape:path-effect
       effect="spiro"
       id="path-effect4168"
       is_visible="true" />
    <inkscape:path-effect
       effect="skeletal"
       id="path-effect4164"
       is_visible="true"
       pattern="m 0,313.26772 c 0,-2.76 2.24,-5 5,-5 2.76,0 5,2.24 5,5 0,2.76 -2.24,5 -5,5 -2.76,0 -5,-2.24 -5,-5 z"
       copytype="single_stretched"
       prop_scale="1"
       scale_y_rel="false"
       spacing="0"
       normal_offset="0"
       tang_offset="0"
       prop_units="false"
       vertical_pattern="false"
       fuse_tolerance="0" />
    <inkscape:path-effect
       effect="spiro"
       id="path-effect4162"
       is_visible="true" />
    <inkscape:path-effect
       effect="skeletal"
       id="path-effect4158"
       is_visible="true"
       pattern="m 0,313.26772 c 0,-2.76 2.24,-5 5,-5 2.76,0 5,2.24 5,5 0,2.76 -2.24,5 -5,5 -2.76,0 -5,-2.24 -5,-5 z"
       copytype="single_stretched"
       prop_scale="1"
       scale_y_rel="false"
       spacing="0"
       normal_offset="0"
       tang_offset="0"
       prop_units="false"
       vertical_pattern="false"
       fuse_tolerance="0" />
  </defs>
  <sodipodi:namedview
     id="base"
     pagecolor="#ffffff"
     bordercolor="#666666"
     borderopacity="1.0"
     inkscape:pageopacity="0.0"
     inkscape:pageshadow="2"
     inkscape:zoom="2.8284271"
     inkscape:cx="173.261"
     inkscape:cy="123.27407"
     inkscape:document-units="px"
     inkscape:current-layer="layer1"
     showgrid="false"
     showguides="true"
     inkscape:guide-bbox="true"
     units="px"
     inkscape:window-width="1920"
     inkscape:window-height="1178"
     inkscape:window-x="0"
     inkscape:window-y="0"
     inkscape:window-maximized="1" />
  <metadata
     id="metadata3341">
    <rdf:RDF>
      <cc:Work
         rdf:about="">
        <dc:format>image/svg+xml</dc:format>
        <dc:type
           rdf:resource="http://purl.org/dc/dcmitype/StillImage" />
        <dc:title></dc:title>
      </cc:Work>
    </rdf:RDF>
  </metadata>
  <g
     inkscape:label="Layer 1"
     inkscape:groupmode="layer"
     id="layer1"
     transform="translate(0,-852.36219)">
    <path
       style="opacity:1;fill:#000000;fill-opacity:1;stroke:#000000;stroke-width:2.03690743;stroke-miterlimit:4;stroke-dasharray:none;stroke-dashoffset:0;stroke-opacity:1"
       d="m 113.36525,856.40472 c -23.313521,-0.25313 -46.422757,3.56585 -65.68639,11.08377 -18.547943,7.23862 -33.222357,17.81387 -40.5908121,30.7465 -0.6934906,1.32966 -1.3070044,2.6752 -1.8375783,4.0336 -2.9031817,7.4329 -3.2320776,15.01059 -1.0537406,22.27334 2.1673256,7.22608 6.707037,13.79907 12.99691,19.51806 12.564081,11.42372 32.058933,19.42687 54.302474,23.25367 22.404104,3.85442 46.783087,3.33646 68.763407,-1.41219 1.38335,-0.2757 0.95095,-2.02824 -0.44698,-1.81167 -22.05777,3.05466 -45.650325,1.84279 -66.379513,-3.37717 -20.87436,-5.25651 -36.867265,-14.07876 -45.578844,-24.21241 -4.277184,-4.97539 -6.549173,-9.97184 -7.140852,-14.68766 -0.586516,-4.67471 0.455826,-9.18902 2.940981,-13.44606 0.463134,-0.79334 0.979114,-1.58315 1.54824,-2.36661 5.157924,-8.02681 15.775671,-15.73273 31.454749,-21.30165 17.232525,-6.12069 38.5805,-8.91858 60.041929,-7.62455 12.02066,0.7248 23.36302,2.69188 33.43269,5.63366 -0.57533,2.07698 -0.8716,4.2213 -0.88101,6.37646 -3.4e-4,13.41164 10.87203,24.28401 24.28366,24.28366 13.41079,-8.5e-4 24.28185,-10.87286 24.28151,-24.28366 3.4e-4,-13.4108 -10.87071,-24.28282 -24.28151,-24.28367 -1.67411,0.009 -5.71186,0.19161 -11.29692,-1.43007 -15.30307,-5.2194 -26.37546,-6.24968 -44.20828,-6.85954 -1.55497,-0.0532 -3.10989,-0.0889 -4.66412,-0.10581 z"
       id="path4219"
       inkscape:connector-curvature="0"
       sodipodi:nodetypes="sscssssccsssscssccccccss" />
    <path
       sodipodi:nodetypes="sscssssccsssscssccccccss"
       inkscape:connector-curvature="0"
       id="path4254"
       d="m 86.46928,1048.8318 c 23.31352,0.2531 46.42276,-3.5659 65.68639,-11.0838 18.54794,-7.2386 33.22236,-17.8139 40.59081,-30.7465 0.69349,-1.3297 1.30701,-2.6752 1.83758,-4.0336 2.90318,-7.43284 3.23208,-15.01062 1.05374,-22.27337 -2.16732,-7.22608 -6.70704,-13.79907 -12.99691,-19.51806 -12.56408,-11.42372 -32.05893,-19.42687 -54.30247,-23.25366 -22.4041,-3.85443 -46.783087,-3.33647 -68.763415,1.41218 -1.383344,0.2757 -0.950944,2.02824 0.446982,1.81167 22.057773,-3.05466 45.650333,-1.84279 66.379513,3.37717 20.87436,5.25651 36.86727,14.07877 45.57885,24.21241 4.27718,4.97539 6.54917,9.97184 7.14085,14.68767 0.58651,4.6747 -0.45583,9.18902 -2.94098,13.44612 -0.46314,0.79337 -0.97912,1.58307 -1.54824,2.36657 -5.15793,8.0268 -15.77567,15.7327 -31.45475,21.3017 -17.23253,6.1206 -38.5805,8.9185 -60.041928,7.6245 -12.020659,-0.7248 -23.363019,-2.6919 -33.432691,-5.6336 0.575328,-2.077 0.871598,-4.2214 0.881007,-6.3765 3.42e-4,-13.4117 -10.872029,-24.28406 -24.283661,-24.28371 -13.410792,8.5e-4 -24.281846,10.87291 -24.2815033,24.28371 -3.427e-4,13.4108 10.8707003,24.2829 24.2815033,24.2836 1.674109,-0.011 5.71186,-0.1916 11.296921,1.4301 15.303074,5.2194 26.375464,6.2497 44.20828,6.8596 1.554973,0.053 3.10989,0.088 4.664122,0.1061 z"
       style="opacity:1;fill:#000000;fill-opacity:1;stroke:#000000;stroke-width:2.03690743;stroke-miterlimit:4;stroke-dasharray:none;stroke-dashoffset:0;stroke-opacity:1" />
  </g>
</svg>
